<svg width="720" height="440" viewBox="0 0 720 440" fill="none" xmlns="http://www.w3.org/2000/svg">
  <rect width="720" height="440" rx="26" fill="#EFF4FA"/>
  <rect x="42" y="42" width="636" height="356" rx="16" fill="white"/>
  <rect x="66" y="68" width="148" height="28" rx="8" fill="#142C43"/>
  <rect x="66" y="124" width="362" height="212" rx="14" fill="#F4F7FA"/>
  <rect x="90" y="150" width="94" height="18" rx="7" fill="#B9CDE0"/>
  <rect x="204" y="150" width="94" height="18" rx="7" fill="#B9CDE0"/>
  <rect x="318" y="150" width="86" height="18" rx="7" fill="#B9CDE0"/>
  <rect x="90" y="192" width="94" height="48" rx="9" fill="#DCEBFF"/>
  <rect x="204" y="192" width="94" height="48" rx="9" fill="#4C8DFF"/>
  <rect x="318" y="192" width="86" height="48" rx="9" fill="#DCEBFF"/>
  <rect x="90" y="260" width="94" height="48" rx="9" fill="#E8F0F8"/>
  <rect x="204" y="260" width="94" height="48" rx="9" fill="#DCEBFF"/>
  <rect x="318" y="260" width="86" height="48" rx="9" fill="#E8F0F8"/>
  <rect x="454" y="124" width="194" height="212" rx="14" fill="#EDF4FF"/>
  <circle cx="492" cy="171" r="18" fill="#4C8DFF"/>
  <rect x="524" y="156" width="84" height="12" rx="6" fill="#142C43"/>
  <rect x="524" y="180" width="62" height="10" rx="5" fill="#B9CDE0"/>
  <rect x="478" y="232" width="146" height="44" rx="10" fill="white"/>
  <rect x="496" y="248" width="54" height="11" rx="5.5" fill="#4C8DFF"/>
  <rect x="560" y="248" width="44" height="11" rx="5.5" fill="#142C43"/>
</svg>
